<svg width="771" height="191" viewBox="0 0 771 191" fill="none" xmlns="http://www.w3.org/2000/svg">
<rect width="771" height="191" rx="62" fill="url(#paint0_linear_2_4)"/>
<path d="M98.125 67.5C93.2917 63.9583 88.375 62.1875 83.375 62.1875C73.3333 62.1875 68.3125 65.9792 68.3125 73.5625C68.3125 76.7708 70.9792 80.6042 76.3125 85.0625L85.75 93.0625C88.6667 95.5625 90.6875 97.3958 91.8125 98.5625C92.9375 99.6875 94.125 101.271 95.375 103.312C96.625 105.354 97.5625 107.417 98.1875 109.5C98.8125 111.583 99.125 113.708 99.125 115.875C99.125 124.25 95.9792 130.792 89.6875 135.5C83.4375 140.208 75.3125 142.562 65.3125 142.562C57.1042 142.562 49.3542 140.792 42.0625 137.25L47.3125 121.188C52.8958 125.396 59.375 127.5 66.75 127.5C71.2083 127.5 74.8958 126.562 77.8125 124.688C80.7708 122.771 82.25 120.062 82.25 116.562C82.25 113.104 79.5833 109.292 74.25 105.125L64.4375 97.3125C61.4375 94.8958 59.3958 93.1458 58.3125 92.0625C57.2708 90.9792 56.1667 89.4792 55 87.5625C53.8333 85.6042 52.9583 83.6042 52.375 81.5625C51.7917 79.5208 51.5 77.4167 51.5 75.25C51.5 66.8333 54.2917 60.1667 59.875 55.25C65.4583 50.3333 72.7708 47.875 81.8125 47.875C84.8125 47.875 88.6458 48.2292 93.3125 48.9375C97.9792 49.6042 101.25 50.375 103.125 51.25L98.125 67.5ZM183.125 142.25H176.562L166.625 86.375L136.938 142.25H130.375L117.438 49.4375H134L140.938 104.938L169.812 49.4375H176.875L185.375 104.562L212.125 49.4375H229.75L183.125 142.25ZM242.812 141H226.5L243.312 49.4375H259.688L242.812 141ZM335.375 63.6875H291.312L287.5 84.75H319.688L317.125 98.375H284.938L277.125 141H260.438L277.438 49.4375H338L335.375 63.6875ZM419.812 63.6875H390.938L376.812 141H360.375L374.5 63.6875H345.375L348 49.4375H422.5L419.812 63.6875ZM471.562 89.6875L494.312 141H476L458.875 101.875L445.875 116.188L441.25 141H425L441.812 49.4375H458.062L450.5 91.0625L488.5 49.4375H507.75L471.562 89.6875ZM579.625 63.6875H537.438L533.625 84.75H563.875L561.312 98.375H531.062L525.938 126.75H567.438L564.75 141H506.5L523.375 49.4375H582.312L579.625 63.6875ZM632.875 100.5L625.438 141H609.312L616.875 100L595.312 49.4375H612.25L627 85.25L654.438 49.4375H673L632.875 100.5ZM726.125 67.5C721.292 63.9583 716.375 62.1875 711.375 62.1875C701.333 62.1875 696.312 65.9792 696.312 73.5625C696.312 76.7708 698.979 80.6042 704.312 85.0625L713.75 93.0625C716.667 95.5625 718.688 97.3958 719.812 98.5625C720.938 99.6875 722.125 101.271 723.375 103.312C724.625 105.354 725.562 107.417 726.188 109.5C726.812 111.583 727.125 113.708 727.125 115.875C727.125 124.25 723.979 130.792 717.688 135.5C711.438 140.208 703.312 142.562 693.312 142.562C685.104 142.562 677.354 140.792 670.062 137.25L675.312 121.188C680.896 125.396 687.375 127.5 694.75 127.5C699.208 127.5 702.896 126.562 705.812 124.688C708.771 122.771 710.25 120.062 710.25 116.562C710.25 113.104 707.583 109.292 702.25 105.125L692.438 97.3125C689.438 94.8958 687.396 93.1458 686.312 92.0625C685.271 90.9792 684.167 89.4792 683 87.5625C681.833 85.6042 680.958 83.6042 680.375 81.5625C679.792 79.5208 679.5 77.4167 679.5 75.25C679.5 66.8333 682.292 60.1667 687.875 55.25C693.458 50.3333 700.771 47.875 709.812 47.875C712.812 47.875 716.646 48.2292 721.312 48.9375C725.979 49.6042 729.25 50.375 731.125 51.25L726.125 67.5Z" fill="#D2D2D2"/>
<defs>
<linearGradient id="paint0_linear_2_4" x1="385.5" y1="0" x2="385.5" y2="191" gradientUnits="userSpaceOnUse">
<stop stop-color="#FF7D54"/>
<stop offset="1" stop-color="#885B41"/>
</linearGradient>
</defs>
</svg>
