<svg width="738" height="191" viewBox="0 0 738 191" fill="none" xmlns="http://www.w3.org/2000/svg">
<rect width="738" height="191" fill="#D9D9D9"/>
<path d="M81.125 67.5C76.2917 63.9583 71.375 62.1875 66.375 62.1875C56.3333 62.1875 51.3125 65.9792 51.3125 73.5625C51.3125 76.7708 53.9792 80.6042 59.3125 85.0625L68.75 93.0625C71.6667 95.5625 73.6875 97.3958 74.8125 98.5625C75.9375 99.6875 77.125 101.271 78.375 103.312C79.625 105.354 80.5625 107.417 81.1875 109.5C81.8125 111.583 82.125 113.708 82.125 115.875C82.125 124.25 78.9792 130.792 72.6875 135.5C66.4375 140.208 58.3125 142.562 48.3125 142.562C40.1042 142.562 32.3542 140.792 25.0625 137.25L30.3125 121.188C35.8958 125.396 42.375 127.5 49.75 127.5C54.2083 127.5 57.8958 126.562 60.8125 124.688C63.7708 122.771 65.25 120.062 65.25 116.562C65.25 113.104 62.5833 109.292 57.25 105.125L47.4375 97.3125C44.4375 94.8958 42.3958 93.1458 41.3125 92.0625C40.2708 90.9792 39.1667 89.4792 38 87.5625C36.8333 85.6042 35.9583 83.6042 35.375 81.5625C34.7917 79.5208 34.5 77.4167 34.5 75.25C34.5 66.8333 37.2917 60.1667 42.875 55.25C48.4583 50.3333 55.7708 47.875 64.8125 47.875C67.8125 47.875 71.6458 48.2292 76.3125 48.9375C80.9792 49.6042 84.25 50.375 86.125 51.25L81.125 67.5ZM166.125 142.25H159.562L149.625 86.375L119.938 142.25H113.375L100.438 49.4375H117L123.938 104.938L152.812 49.4375H159.875L168.375 104.562L195.125 49.4375H212.75L166.125 142.25ZM225.812 141H209.5L226.312 49.4375H242.688L225.812 141ZM318.375 63.6875H274.312L270.5 84.75H302.688L300.125 98.375H267.938L260.125 141H243.438L260.438 49.4375H321L318.375 63.6875ZM402.812 63.6875H373.938L359.812 141H343.375L357.5 63.6875H328.375L331 49.4375H405.5L402.812 63.6875ZM454.562 89.6875L477.312 141H459L441.875 101.875L428.875 116.188L424.25 141H408L424.812 49.4375H441.062L433.5 91.0625L471.5 49.4375H490.75L454.562 89.6875ZM562.625 63.6875H520.438L516.625 84.75H546.875L544.312 98.375H514.062L508.938 126.75H550.438L547.75 141H489.5L506.375 49.4375H565.312L562.625 63.6875ZM615.875 100.5L608.438 141H592.312L599.875 100L578.312 49.4375H595.25L610 85.25L637.438 49.4375H656L615.875 100.5ZM709.125 67.5C704.292 63.9583 699.375 62.1875 694.375 62.1875C684.333 62.1875 679.312 65.9792 679.312 73.5625C679.312 76.7708 681.979 80.6042 687.312 85.0625L696.75 93.0625C699.667 95.5625 701.688 97.3958 702.812 98.5625C703.938 99.6875 705.125 101.271 706.375 103.312C707.625 105.354 708.562 107.417 709.188 109.5C709.812 111.583 710.125 113.708 710.125 115.875C710.125 124.25 706.979 130.792 700.688 135.5C694.438 140.208 686.312 142.562 676.312 142.562C668.104 142.562 660.354 140.792 653.062 137.25L658.312 121.188C663.896 125.396 670.375 127.5 677.75 127.5C682.208 127.5 685.896 126.562 688.812 124.688C691.771 122.771 693.25 120.062 693.25 116.562C693.25 113.104 690.583 109.292 685.25 105.125L675.438 97.3125C672.438 94.8958 670.396 93.1458 669.312 92.0625C668.271 90.9792 667.167 89.4792 666 87.5625C664.833 85.6042 663.958 83.6042 663.375 81.5625C662.792 79.5208 662.5 77.4167 662.5 75.25C662.5 66.8333 665.292 60.1667 670.875 55.25C676.458 50.3333 683.771 47.875 692.812 47.875C695.812 47.875 699.646 48.2292 704.312 48.9375C708.979 49.6042 712.25 50.375 714.125 51.25L709.125 67.5Z" fill="black"/>
</svg>
