<svg width="941" height="191" viewBox="0 0 941 191" fill="none" xmlns="http://www.w3.org/2000/svg">
<rect x="85" width="771" height="191" rx="62" fill="url(#paint0_linear_2_4)"/>
<path d="M183.125 67.5C178.292 63.9583 173.375 62.1875 168.375 62.1875C158.333 62.1875 153.312 65.9792 153.312 73.5625C153.312 76.7708 155.979 80.6042 161.312 85.0625L170.75 93.0625C173.667 95.5625 175.688 97.3958 176.812 98.5625C177.938 99.6875 179.125 101.271 180.375 103.312C181.625 105.354 182.562 107.417 183.188 109.5C183.812 111.583 184.125 113.708 184.125 115.875C184.125 124.25 180.979 130.792 174.688 135.5C168.438 140.208 160.312 142.562 150.312 142.562C142.104 142.562 134.354 140.792 127.062 137.25L132.312 121.188C137.896 125.396 144.375 127.5 151.75 127.5C156.208 127.5 159.896 126.562 162.812 124.688C165.771 122.771 167.25 120.062 167.25 116.562C167.25 113.104 164.583 109.292 159.25 105.125L149.438 97.3125C146.438 94.8958 144.396 93.1458 143.312 92.0625C142.271 90.9792 141.167 89.4792 140 87.5625C138.833 85.6042 137.958 83.6042 137.375 81.5625C136.792 79.5208 136.5 77.4167 136.5 75.25C136.5 66.8333 139.292 60.1667 144.875 55.25C150.458 50.3333 157.771 47.875 166.812 47.875C169.812 47.875 173.646 48.2292 178.312 48.9375C182.979 49.6042 186.25 50.375 188.125 51.25L183.125 67.5ZM268.125 142.25H261.562L251.625 86.375L221.938 142.25H215.375L202.438 49.4375H219L225.938 104.938L254.812 49.4375H261.875L270.375 104.562L297.125 49.4375H314.75L268.125 142.25ZM327.812 141H311.5L328.312 49.4375H344.688L327.812 141ZM420.375 63.6875H376.312L372.5 84.75H404.688L402.125 98.375H369.938L362.125 141H345.438L362.438 49.4375H423L420.375 63.6875ZM504.812 63.6875H475.938L461.812 141H445.375L459.5 63.6875H430.375L433 49.4375H507.5L504.812 63.6875ZM556.562 89.6875L579.312 141H561L543.875 101.875L530.875 116.188L526.25 141H510L526.812 49.4375H543.062L535.5 91.0625L573.5 49.4375H592.75L556.562 89.6875ZM664.625 63.6875H622.438L618.625 84.75H648.875L646.312 98.375H616.062L610.938 126.75H652.438L649.75 141H591.5L608.375 49.4375H667.312L664.625 63.6875ZM717.875 100.5L710.438 141H694.312L701.875 100L680.312 49.4375H697.25L712 85.25L739.438 49.4375H758L717.875 100.5ZM811.125 67.5C806.292 63.9583 801.375 62.1875 796.375 62.1875C786.333 62.1875 781.312 65.9792 781.312 73.5625C781.312 76.7708 783.979 80.6042 789.312 85.0625L798.75 93.0625C801.667 95.5625 803.688 97.3958 804.812 98.5625C805.938 99.6875 807.125 101.271 808.375 103.312C809.625 105.354 810.562 107.417 811.188 109.5C811.812 111.583 812.125 113.708 812.125 115.875C812.125 124.25 808.979 130.792 802.688 135.5C796.438 140.208 788.312 142.562 778.312 142.562C770.104 142.562 762.354 140.792 755.062 137.25L760.312 121.188C765.896 125.396 772.375 127.5 779.75 127.5C784.208 127.5 787.896 126.562 790.812 124.688C793.771 122.771 795.25 120.062 795.25 116.562C795.25 113.104 792.583 109.292 787.25 105.125L777.438 97.3125C774.438 94.8958 772.396 93.1458 771.312 92.0625C770.271 90.9792 769.167 89.4792 768 87.5625C766.833 85.6042 765.958 83.6042 765.375 81.5625C764.792 79.5208 764.5 77.4167 764.5 75.25C764.5 66.8333 767.292 60.1667 772.875 55.25C778.458 50.3333 785.771 47.875 794.812 47.875C797.812 47.875 801.646 48.2292 806.312 48.9375C810.979 49.6042 814.25 50.375 816.125 51.25L811.125 67.5Z" fill="#D2D2D2"/>
<defs>
<linearGradient id="paint0_linear_2_4" x1="470.5" y1="0" x2="470.5" y2="191" gradientUnits="userSpaceOnUse">
<stop stop-color="#FF7D54"/>
<stop offset="1" stop-color="#885B41"/>
</linearGradient>
</defs>
</svg>
